PathFileType	4	(x/y/z)	Passive_Pref0006.trc
DataRate	CameraRate	NumFrames	NumMarkers	Units	OrigDataRate	OrigDataStartFrame	OrigNumFrames
240	240	11	50	mm	240	151	300
Frame#	Time	R_AC			L_AC			HEAD			STERN			C7			L_IC			R_IC			L_ASIS			R_ASIS			L_GT			R_GT			R_PSIS			L_PSIS			SACRAL			L_LAT_KNEE			L_MED_KNEE			R_LAT_KNEE			R_MED_KNEE			L_LAT_ANK			L_MED_ANK			R_LAT_ANK			R_MED_ANK			L_THIGH_PROX_POST			L_THIGH_PROX_ANT			L_THIGH_DIST_ANT			L_THIGH_DIST_POST			R_THIGH_PROX_POST			R_THIGH_PROX_ANT			R_THIGH_DIST_ANT			R_THIGH_DIST_POST			L_SHANK_PROX_POST			L_SHANK_PROX_ANT			L_SHANK_DIST_ANT			L_SHANK_DIST_POST			R_SHANK_PROX_POST			R_SHANK_PROX_ANT			R_SHANK_DIST_ANT			R_SHANK_DIST_POST			L_HEEL_LAT			L_HEEL_SUP			L_HEEL_MED			R_HEEL_LAT			R_HEEL_SUP			R_HEEL_MED			L_1ST_MET			L_5TH_MET			L_TOE			R_1ST_MET			R_5TH_MET			R_TOE			
		X1	Y1	Z1	X2	Y2	Z2	X3	Y3	Z3	X4	Y4	Z4	X5	Y5	Z5	X6	Y6	Z6	X7	Y7	Z7	X8	Y8	Z8	X9	Y9	Z9	X10	Y10	Z10	X11	Y11	Z11	X12	Y12	Z12	X13	Y13	Z13	X14	Y14	Z14	X15	Y15	Z15	X16	Y16	Z16	X17	Y17	Z17	X18	Y18	Z18	X19	Y19	Z19	X20	Y20	Z20	X21	Y21	Z21	X22	Y22	Z22	X23	Y23	Z23	X24	Y24	Z24	X25	Y25	Z25	X26	Y26	Z26	X27	Y27	Z27	X28	Y28	Z28	X29	Y29	Z29	X30	Y30	Z30	X31	Y31	Z31	X32	Y32	Z32	X33	Y33	Z33	X34	Y34	Z34	X35	Y35	Z35	X36	Y36	Z36	X37	Y37	Z37	X38	Y38	Z38	X39	Y39	Z39	X40	Y40	Z40	X41	Y41	Z41	X42	Y42	Z42	X43	Y43	Z43	X44	Y44	Z44	X45	Y45	Z45	X46	Y46	Z46	X47	Y47	Z47	X48	Y48	Z48	X49	Y49	Z49	X50	Y50	Z50	

151	0.62709	52.034	1495.6	496.84	20.497	1520.2	95.102	94.858	1820	308.04	119.16	1450.8	296.63	-28.919	1550.4	305.66	-38.599	1079.5	136.6	24.407	1097.7	471.54	34.157	1001.5	150.89	91.697	1014.4	415.8	-89.734	934.38	125.98	11.21	931.25	485.38	-136.44	1008.5	375.4	-156.01	1020.7	293.65	-164.24	982.45	331.5	-174.01	543.85	170.12	-143.79	550.52	305.82	160.01	538.32	438.69	151.91	538.74	303.1	-385.72	151.25	213.89	-403.15	150.2	295.53	301.66	96.801	377.14	321.04	142.81	282.22	-96.113	772.35	136.29	-35.166	750.92	156.51	-56.063	681.91	167.05	-114.97	698.85	150.34	17.044	771.76	464.17	74.388	794.72	482.49	93.594	722.66	472.83	42.843	704.28	452.02	-191.52	492.41	185.17	-130.53	498.1	195.75	-154.63	436.33	212.54	-211.09	433.57	191.86	167.45	367.73	436.17	221.41	390.21	434.69	247.36	320.51	421.1	196.21	296.1	419.68	-465.46	94.149	214.62	-477.41	123.85	246.94	-479.83	95.164	282.21	257.78	26.011	329.6	249.96	54.17	295.75	284.79	45.455	271.86	-275.98	37.68	333.95	-273.76	40.677	217.13	-209.14	49.387	300.63	468.01	149.53	309.3	432.33	105.82	414.56	500.42	177.63	373.56
152	0.63127	57.924	1494.4	497.57	26.457	1519.5	95.826	100.46	1819.2	308.73	125.15	1449.9	297.3	-22.998	1549.4	306.42	-32.436	1078.5	136.5	30.669	1096.4	471.6	40.249	1000.4	150.66	98.041	1013.7	415.57	-83.835	933.42	125.88	17.784	930.51	485.23	-130.17	1007.3	375.39	-149.79	1019.6	293.68	-157.98	981.35	331.49	-169.4	543.36	170.25	-139.11	549.78	305.92	167.03	537.86	437.82	158.48	538.35	302.37	-384.42	152.49	213.99	-402	151.57	295.69	304.31	95.698	376.18	324.18	140.54	280.83	-90.724	771.59	136.33	-29.882	749.95	156.39	-50.897	681.01	166.86	-109.84	698.14	150.36	23.792	771.06	463.8	81.115	794.1	482.11	100.39	722.13	472.22	49.697	703.66	451.47	-187.35	492.08	185.33	-126.29	497.24	195.88	-150.9	435.67	212.65	-207.4	433.39	191.98	173.38	367.15	435.3	227.51	389.18	433.54	252.79	319.26	419.88	201.45	295.27	418.72	-464.7	96.08	214.76	-476.35	125.87	247.09	-478.99	97.141	282.28	258.79	26.031	329.07	251.56	54.013	294.95	286.19	44.127	271.15	-275.7	37.859	333.99	-273.49	40.838	217.16	-208.79	49.076	300.67	471.29	144.95	307.76	434.87	102.65	413.19	504.44	172.87	371.91
153	0.63545	63.8	1493.3	498.32	32.425	1518.7	96.559	106.06	1818.4	309.43	131.15	1449.1	297.99	-17.077	1548.4	307.19	-26.221	1077.6	136.38	36.951	1095.3	471.65	46.381	999.32	150.44	104.38	1013	415.34	-77.891	932.44	125.76	24.349	929.84	485.09	-123.88	1006.2	375.35	-143.56	1018.6	293.67	-151.69	980.27	331.44	-164.68	542.85	170.39	-134.3	549.02	306.02	174.01	537.46	437.02	165.01	538.02	301.68	-383.06	153.79	214.1	-400.75	153.02	295.85	306.84	94.676	375.31	327.23	138.34	279.54	-85.271	770.82	136.36	-24.562	748.98	156.29	-45.663	680.11	166.68	-104.62	697.42	150.38	30.513	770.43	463.46	87.814	793.53	481.76	107.14	721.65	471.64	56.518	703.11	450.96	-183.07	491.74	185.49	-121.94	496.36	196.02	-147.08	435	212.77	-203.61	433.21	192.11	179.28	366.64	434.48	233.57	388.23	432.46	258.19	318.09	418.73	206.65	294.51	417.83	-463.87	98.132	214.9	-475.22	128	247.24	-478.07	99.252	282.36	259.69	26.181	328.61	253.05	53.99	294.23	287.46	42.922	270.54	-275.4	38.067	334.03	-273.21	41.018	217.2	-208.42	48.755	300.71	474.49	140.3	306.35	437.28	99.443	411.93	508.39	167.99	370.39
154	0.63963	69.661	1492.2	499.08	38.398	1518	97.298	111.66	1817.6	310.14	137.16	1448.4	298.69	-11.157	1547.5	307.97	-19.955	1076.6	136.23	43.247	1094.2	471.7	52.549	998.25	150.22	110.71	1012.5	415.12	-71.901	931.47	125.63	30.895	929.24	484.97	-117.59	1005.2	375.28	-137.32	1017.6	293.62	-145.39	979.21	331.35	-159.82	542.33	170.53	-129.37	548.24	306.12	180.94	537.13	436.31	171.5	537.75	301.04	-381.62	155.15	214.21	-399.39	154.54	296.01	309.28	93.736	374.54	330.22	136.21	278.34	-79.747	770.05	136.4	-19.194	748.01	156.2	-40.355	679.22	166.52	-99.318	696.69	150.4	37.204	769.87	463.16	94.482	793.03	481.47	113.84	721.24	471.12	63.305	702.62	450.5	-178.66	491.4	185.66	-117.48	495.46	196.15	-143.15	434.33	212.89	-199.7	433.03	192.25	185.16	366.21	433.74	239.61	387.35	431.46	263.56	317	417.66	211.82	293.84	417.03	-462.96	100.31	215.05	-473.98	130.27	247.38	-477.08	101.51	282.45	260.5	26.448	328.23	254.45	54.095	293.58	288.62	41.85	270	-275.08	38.308	334.07	-272.91	41.218	217.24	-208.05	48.422	300.75	477.59	135.62	305.06	439.57	96.225	410.79	512.25	163.03	368.99
155	0.64381	75.507	1491	499.85	44.373	1517.3	98.039	117.26	1816.9	310.84	143.18	1447.7	299.4	-5.24	1546.7	308.76	-13.64	1075.7	136.06	49.551	1093.1	471.74	58.752	997.19	150.01	117.02	1011.9	414.9	-65.864	930.5	125.5	37.414	928.72	484.86	-111.31	1004.1	375.18	-131.08	1016.6	293.53	-139.07	978.2	331.24	-154.82	541.79	170.67	-124.28	547.45	306.22	187.84	536.88	435.67	177.97	537.56	300.47	-380.09	156.58	214.32	-397.91	156.16	296.17	311.62	92.878	373.88	333.12	134.16	277.27	-74.149	769.27	136.43	-13.764	747.04	156.13	-34.962	678.34	166.38	-93.911	695.96	150.43	43.863	769.39	462.9	101.12	792.61	481.22	120.51	720.89	470.64	70.056	702.21	450.09	-174.13	491.05	185.81	-112.89	494.54	196.28	-139.11	433.64	213.02	-195.68	432.86	192.38	191.01	365.87	433.07	245.62	386.56	430.55	268.88	316	416.68	216.96	293.27	416.31	-461.96	102.64	215.2	-472.64	132.68	247.51	-475.99	103.92	282.54	261.24	26.817	327.92	255.76	54.318	293.02	289.69	40.918	269.54	-274.74	38.586	334.12	-272.59	41.442	217.27	-207.65	48.078	300.79	480.59	130.95	303.91	441.75	93.005	409.77	516	158.02	367.73
156	0.64799	81.34	1490	500.63	50.347	1516.6	98.781	122.86	1816.3	311.55	149.21	1447	300.12	0.6739	1545.9	309.55	-7.2792	1074.9	135.86	55.853	1092.1	471.77	64.987	996.17	149.81	123.31	1011.5	414.69	-59.78	929.54	125.36	43.896	928.3	484.77	-105.05	1003.2	375.04	-124.84	1015.7	293.4	-132.74	977.23	331.09	-149.67	541.24	170.81	-119.04	546.63	306.32	194.7	536.72	435.12	184.41	537.46	299.96	-378.47	158.08	214.45	-396.3	157.86	296.33	313.85	92.097	373.31	335.93	132.22	276.31	-68.47	768.5	136.47	-8.2576	746.1	156.07	-29.475	677.48	166.27	-88.393	695.23	150.46	50.489	768.99	462.69	107.72	792.27	481.02	127.14	720.62	470.23	76.771	701.88	449.74	-169.45	490.69	185.97	-108.17	493.6	196.41	-134.94	432.95	213.14	-191.53	432.7	192.51	196.83	365.62	432.49	251.59	385.86	429.73	274.16	315.07	415.79	222.05	292.8	415.7	-460.87	105.11	215.36	-471.19	135.24	247.64	-474.82	106.51	282.66	261.92	27.274	327.67	257	54.649	292.55	290.67	40.13	269.17	-274.37	38.906	334.17	-272.25	41.692	217.31	-207.24	47.722	300.84	483.48	126.31	302.88	443.82	89.797	408.86	519.62	153	366.61
157	0.65217	87.158	1489	501.41	56.316	1516.1	99.52	128.47	1815.7	312.26	155.24	1446.5	300.85	6.5827	1545.1	310.34	-0.87331	1074	135.64	62.145	1091.2	471.8	71.253	995.17	149.62	129.56	1011.1	414.51	-53.649	928.58	125.21	50.333	927.97	484.69	-98.8	1002.3	374.86	-118.59	1014.8	293.22	-126.4	976.31	330.9	-144.36	540.66	170.94	-113.64	545.78	306.4	201.55	536.65	434.65	190.84	537.45	299.53	-376.75	159.66	214.57	-394.56	159.66	296.48	316	91.391	372.86	338.65	130.39	275.47	-62.706	767.73	136.5	-2.6588	745.18	156.03	-23.884	676.65	166.19	-82.757	694.49	150.49	57.084	768.68	462.53	114.28	792.01	480.88	133.73	720.43	469.88	83.453	701.63	449.46	-164.62	490.32	186.12	-103.3	492.63	196.53	-130.65	432.25	213.27	-187.24	432.53	192.64	202.61	365.47	432.01	257.52	385.24	429.01	279.39	314.24	414.99	227.1	292.43	415.19	-459.67	107.74	215.51	-469.61	137.96	247.77	-473.53	109.28	282.79	262.55	27.803	327.49	258.17	55.075	292.16	291.57	39.486	268.87	-273.98	39.272	334.22	-271.89	41.972	217.35	-206.8	47.356	300.88	486.25	121.74	301.99	445.79	86.615	408.08	523.11	147.98	365.62
158	0.65635	92.961	1488	502.18	62.279	1515.5	100.25	134.07	1815.2	312.97	161.27	1446	301.58	12.484	1544.4	311.12	5.5746	1073.2	135.41	68.417	1090.4	471.82	77.546	994.22	149.45	135.78	1010.8	414.34	-47.471	927.65	125.07	56.717	927.73	484.63	-92.581	1001.5	374.66	-112.36	1013.9	293.01	-120.06	975.46	330.69	-138.89	540.07	171.06	-108.06	544.91	306.48	208.37	536.67	434.26	197.27	537.55	299.17	-374.92	161.32	214.7	-392.68	161.55	296.63	318.04	90.753	372.51	341.27	128.68	274.77	-56.849	766.97	136.54	3.0485	744.29	156.01	-18.178	675.84	166.15	-76.992	693.75	150.52	63.648	768.46	462.42	120.82	791.85	480.79	140.29	720.32	469.59	90.103	701.47	449.24	-159.64	489.93	186.25	-98.288	491.64	196.65	-126.22	431.53	213.39	-182.8	432.36	192.76	208.35	365.42	431.63	263.41	384.71	428.38	284.55	313.49	414.3	232.08	292.16	414.8	-458.36	110.53	215.67	-467.89	140.84	247.88	-472.13	112.24	282.93	263.14	28.387	327.37	259.29	55.583	291.86	292.41	38.981	268.64	-273.57	39.689	334.28	-271.5	42.285	217.39	-206.35	46.98	300.93	488.89	117.26	301.22	447.64	83.473	407.41	526.44	143.01	364.77
159	0.66054	98.749	1487.1	502.96	68.232	1515.1	100.98	139.67	1814.7	313.68	167.3	1445.6	302.3	18.377	1543.8	311.9	12.062	1072.5	135.15	74.659	1089.7	471.84	83.864	993.32	149.31	141.95	1010.6	414.2	-41.246	926.73	124.92	63.04	927.59	484.58	-86.394	1000.7	374.42	-106.13	1013.2	292.74	-113.72	974.67	330.45	-133.23	539.44	171.17	-102.29	544	306.55	215.2	536.78	433.94	203.72	537.75	298.89	-372.98	163.05	214.83	-390.64	163.56	296.77	319.99	90.181	372.26	343.78	127.08	274.18	-50.894	766.21	136.58	8.8802	743.44	156	-12.348	675.06	166.15	-71.089	693	150.56	70.185	768.32	462.36	127.32	791.78	480.75	146.83	720.31	469.37	96.726	701.4	449.08	-154.48	489.53	186.38	-93.113	490.62	196.75	-121.64	430.8	213.5	-178.21	432.19	192.87	214.04	365.47	431.35	269.24	384.26	427.85	289.65	312.83	413.7	237	291.99	414.52	-456.92	113.49	215.82	-466.02	143.9	247.99	-470.61	115.39	283.09	263.71	29.013	327.31	260.35	56.16	291.63	293.19	38.608	268.48	-273.12	40.161	334.34	-271.08	42.634	217.43	-205.88	46.596	300.97	491.39	112.9	300.57	449.4	80.383	406.84	529.61	138.11	364.03
160	0.66472	104.52	1486.3	503.72	74.174	1514.7	101.69	145.28	1814.4	314.38	173.32	1445.2	303.02	24.258	1543.2	312.67	18.584	1071.8	134.89	80.86	1089.1	471.85	90.205	992.47	149.19	148.09	1010.5	414.1	-34.974	925.84	124.78	69.297	927.55	484.55	-80.244	1000.1	374.14	-99.911	1012.5	292.44	-107.39	973.96	330.17	-127.39	538.79	171.26	-96.331	543.06	306.59	222.03	536.98	433.69	210.18	538.04	298.69	-370.92	164.87	214.96	-388.45	165.67	296.9	321.84	89.667	372.1	346.19	125.6	273.72	-44.836	765.47	136.61	14.85	742.64	156.01	-6.3827	674.33	166.18	-65.04	692.26	150.59	76.695	768.28	462.36	133.8	791.8	480.76	153.36	720.38	469.22	103.33	701.41	449	-149.15	489.12	186.48	-87.773	489.56	196.83	-116.9	430.05	213.6	-173.46	432.02	192.96	219.68	365.6	431.19	275.02	383.89	427.41	294.67	312.24	413.21	241.86	291.92	414.36	-455.35	116.63	215.97	-464	147.14	248.08	-468.96	118.75	283.26	264.24	29.667	327.29	261.36	56.792	291.49	293.92	38.359	268.39	-272.64	40.693	334.41	-270.63	43.024	217.46	-205.38	46.206	301.01	493.75	108.67	300.02	451.06	77.359	406.38	532.61	133.3	363.41
161	0.6689	110.28	1485.5	504.48	80.105	1514.4	102.39	150.87	1814.1	315.08	179.34	1445	303.73	30.125	1542.7	313.43	25.138	1071.2	134.62	87.013	1088.6	471.87	96.566	991.69	149.11	154.17	1010.4	414.03	-28.656	924.99	124.64	75.484	927.6	484.53	-74.134	999.54	373.84	-93.704	1011.8	292.1	-101.06	973.34	329.87	-121.35	538.09	171.33	-90.174	542.08	306.62	228.86	537.27	433.49	216.67	538.44	298.57	-368.73	166.78	215.09	-386.09	167.89	297.02	323.59	89.207	372.04	348.47	124.25	273.38	-38.668	764.74	136.65	20.971	741.9	156.04	-0.27324	673.65	166.27	-58.837	691.53	150.63	83.182	768.32	462.41	140.25	791.91	480.82	159.87	720.54	469.13	109.9	701.51	448.98	-143.63	488.68	186.56	-82.26	488.47	196.9	-112.01	429.28	213.69	-168.54	431.84	193.04	225.26	365.83	431.13	280.74	383.59	427.06	299.61	311.73	412.81	246.63	291.94	414.32	-453.63	119.94	216.12	-461.8	150.56	248.17	-467.16	122.31	283.44	264.76	30.335	327.32	262.33	57.465	291.43	294.6	38.222	268.35	-272.11	41.289	334.47	-270.15	43.458	217.49	-204.85	45.815	301.04	495.96	104.6	299.57	452.62	74.411	406.01	535.42	128.6	362.88
